ffmpeg started on 2016-12-07 at 13:15:28
Report written to "Output/x264/results/ffmpeg/crowd_run_2160p50slow9000k.log"
Command line:
Tools/ffmpeg/ffmpeg -benchmark -y -i Input/y4m/crowd_run_2160p50.y4m -c:v libx264 -preset slow -b:v 9000k -an Output/x264/encoded/crowd_run_2160p50slow9000k.mkv
ffmpeg version N-82227-gdb23fde Copyright (c) 2000-2016 the FFmpeg developers
  built with gcc 5.4.0 (Ubuntu 5.4.0-6ubuntu1~16.04.2) 20160609
  configuration: --prefix=/home/jaroslav/ffmpeg_build --pkg-config-flags=--static --extra-cflags=-I/home/jaroslav/ffmpeg_build/include --extra-ldflags=-L/home/jaroslav/ffmpeg_build/lib --bindir=/home/jaroslav/bin --enable-gpl --enable-libass --enable-libfdk-aac --enable-libfreetype --enable-libmp3lame --enable-libopus --enable-libtheora --enable-libvorbis --enable-libvpx --enable-libx264 --enable-libx265 --enable-nvenc --enable-libmfx --enable-libxvid --enable-libgsm --enable-libopencore-amrnb --enable-version3 --enable-nonfree
  libavutil      55. 35.100 / 55. 35.100
  libavcodec     57. 66.101 / 57. 66.101
  libavformat    57. 57.100 / 57. 57.100
  libavdevice    57.  2.100 / 57.  2.100
  libavfilter     6. 66.100 /  6. 66.100
  libswscale      4.  3.100 /  4.  3.100
  libswresample   2.  4.100 /  2.  4.100
  libpostproc    54.  2.100 / 54.  2.100
Input #0, yuv4mpegpipe, from 'Input/y4m/crowd_run_2160p50.y4m':
  Duration: 00:00:10.00, start: 0.000000, bitrate: 4976642 kb/s
    Stream #0:0: Video: rawvideo (I420 / 0x30323449), yuv420p(progressive), 3840x2160, SAR 1:1 DAR 16:9, 50 fps, 50 tbr, 50 tbn, 50 tbc
[libx264 @ 0x30c71c0] using SAR=1/1
[libx264 @ 0x30c71c0] using cpu capabilities: MMX2 SSE2Fast SSSE3 SSE4.2 AVX FMA3 AVX2 LZCNT BMI2
[libx264 @ 0x30c71c0] profile High, level 5.2
[libx264 @ 0x30c71c0] 264 - core 148 - H.264/MPEG-4 AVC codec - Copyleft 2003-2016 - http://www.videolan.org/x264.html - options: cabac=1 ref=5 deblock=1:0:0 analyse=0x3:0x113 me=hex subme=8 psy=1 psy_rd=1.00:0.00 mixed_ref=1 me_range=16 chroma_me=1 trellis=2 8x8dct=1 cqm=0 deadzone=21,11 fast_pskip=1 chroma_qp_offset=-2 threads=6 lookahead_threads=1 sliced_threads=0 nr=0 decimate=1 interlaced=0 bluray_compat=0 constrained_intra=0 bframes=3 b_pyramid=2 b_adapt=1 b_bias=0 direct=3 weightb=1 open_gop=0 weightp=2 keyint=250 keyint_min=25 scenecut=40 intra_refresh=0 rc_lookahead=50 rc=abr mbtree=1 bitrate=9000 ratetol=1.0 qcomp=0.60 qpmin=0 qpmax=69 qpstep=4 ip_ratio=1.40 aq=1:1.00
Output #0, matroska, to 'Output/x264/encoded/crowd_run_2160p50slow9000k.mkv':
  Metadata:
    encoder         : Lavf57.57.100
    Stream #0:0: Video: h264 (libx264) (H264 / 0x34363248), yuv420p, 3840x2160 [SAR 1:1 DAR 16:9], q=-1--1, 9000 kb/s, 50 fps, 1k tbn, 50 tbc
    Metadata:
      encoder         : Lavc57.66.101 libx264
    Side data:
      cpb: bitrate max/min/avg: 0/0/9000000 buffer size: 0 vbv_delay: -1
Stream mapping:
  Stream #0:0 -> #0:0 (rawvideo (native) -> h264 (libx264))
Press [q] to stop, [?] for help
frame=   18 fps=0.0 q=0.0 size=       0kB time=00:00:00.00 bitrate=N/A speed=   0x    frame=   30 fps= 21 q=0.0 size=       0kB time=00:00:00.00 bitrate=N/A speed=   0x    frame=   42 fps= 22 q=0.0 size=       0kB time=00:00:00.00 bitrate=N/A speed=   0x    frame=   52 fps= 21 q=0.0 size=       0kB time=00:00:00.00 bitrate=N/A speed=   0x    frame=   57 fps= 11 q=0.0 size=       0kB time=00:00:00.00 bitrate=N/A speed=   0x    frame=   61 fps= 10 q=36.0 size=       1kB time=-00:00:00.03 bitrate=N/A speed=N/A    frame=   63 fps=9.4 q=35.0 size=       1kB time=00:00:00.00 bitrate=5872.0kbits/s speed=0.000149x    frame=   68 fps=9.2 q=42.0 size=       1kB time=00:00:00.10 bitrate=  58.1kbits/s speed=0.0137x    frame=   71 fps=8.9 q=46.0 size=       1kB time=00:00:00.16 bitrate=  36.5kbits/s speed=0.0202x    frame=   77 fps=9.0 q=50.0 size=       1kB time=00:00:00.28 bitrate=  20.9kbits/s speed=0.033x    frame=   81 fps=8.9 q=50.0 size=       1kB time=00:00:00.36 bitrate=  16.3kbits/s speed=0.0399x    frame=   87 fps=8.9 q=50.0 size=       1kB time=00:00:00.48 bitrate=  12.2kbits/s speed=0.0494x    frame=   92 fps=9.0 q=49.0 size=       1kB time=00:00:00.58 bitrate=  10.1kbits/s speed=0.0565x    frame=   99 fps=9.0 q=49.0 size=       1kB time=00:00:00.72 bitrate=   8.1kbits/s speed=0.0656x    frame=  103 fps=9.0 q=49.0 size=       1kB time=00:00:00.80 bitrate=   7.3kbits/s speed=0.0696x    frame=  109 fps=9.1 q=48.0 size=       1kB time=00:00:00.92 bitrate=   6.4kbits/s speed=0.0767x    frame=  113 fps=9.0 q=48.0 size=       1kB time=00:00:01.00 bitrate=   5.9kbits/s speed=0.0799x    frame=  119 fps=9.0 q=48.0 size=       1kB time=00:00:01.12 bitrate=   5.2kbits/s speed=0.0847x    frame=  124 fps=9.0 q=48.0 size=       1kB time=00:00:01.22 bitrate=   4.8kbits/s speed=0.0883x    frame=  130 fps=9.1 q=48.0 size=       1kB time=00:00:01.34 bitrate=   4.4kbits/s speed=0.0935x    frame=  132 fps=8.9 q=48.0 size=       1kB time=00:00:01.38 bitrate=   4.3kbits/s speed=0.093x    frame=  139 fps=8.9 q=48.0 size=       1kB time=00:00:01.52 bitrate=   3.9kbits/s speed=0.0971x    frame=  146 fps=9.0 q=47.0 size=       1kB time=00:00:01.66 bitrate=   3.5kbits/s speed=0.102x    frame=  151 fps=9.0 q=47.0 size=       1kB time=00:00:01.76 bitrate=   3.3kbits/s speed=0.105x    frame=  155 fps=8.9 q=47.0 size=       1kB time=00:00:01.84 bitrate=   3.2kbits/s speed=0.105x    frame=  161 fps=8.9 q=47.0 size=       1kB time=00:00:01.96 bitrate=   3.0kbits/s speed=0.109x    frame=  166 fps=8.9 q=47.0 size=       1kB time=00:00:02.06 bitrate=   2.8kbits/s speed=0.111x    frame=  171 fps=8.8 q=47.0 size=       1kB time=00:00:02.16 bitrate=   2.7kbits/s speed=0.111x    frame=  178 fps=8.9 q=47.0 size=       1kB time=00:00:02.30 bitrate=   2.6kbits/s speed=0.115x    frame=  181 fps=8.8 q=47.0 size=       1kB time=00:00:02.36 bitrate=   2.5kbits/s speed=0.115x    frame=  187 fps=8.8 q=47.0 size=       1kB time=00:00:02.48 bitrate=   2.4kbits/s speed=0.117x    frame=  192 fps=8.8 q=47.0 size=       1kB time=00:00:02.58 bitrate=   2.3kbits/s speed=0.118x    frame=  197 fps=8.8 q=47.0 size=       1kB time=00:00:02.68 bitrate=   2.2kbits/s speed=0.12x    frame=  201 fps=8.8 q=47.0 size=       1kB time=00:00:02.76 bitrate=   2.1kbits/s speed=0.121x    frame=  206 fps=8.8 q=47.0 size=       1kB time=00:00:02.86 bitrate=   2.1kbits/s speed=0.122x    frame=  211 fps=8.8 q=47.0 size=       1kB time=00:00:02.96 bitrate=   2.0kbits/s speed=0.123x    frame=  215 fps=8.7 q=46.0 size=       1kB time=00:00:03.04 bitrate=   1.9kbits/s speed=0.123x    frame=  220 fps=8.7 q=46.0 size=       1kB time=00:00:03.14 bitrate=   1.9kbits/s speed=0.124x    frame=  225 fps=8.7 q=46.0 size=       1kB time=00:00:03.24 bitrate=   1.8kbits/s speed=0.126x    frame=  229 fps=8.7 q=46.0 size=       1kB time=00:00:03.32 bitrate=   1.8kbits/s speed=0.126x    frame=  235 fps=8.6 q=46.0 size=       1kB time=00:00:03.44 bitrate=   1.7kbits/s speed=0.127x    frame=  242 fps=8.7 q=46.0 size=       1kB time=00:00:03.58 bitrate=   1.6kbits/s speed=0.129x    frame=  244 fps=8.6 q=46.0 size=       1kB time=00:00:03.62 bitrate=   1.6kbits/s speed=0.128x    frame=  251 fps=8.6 q=46.0 size=       1kB time=00:00:03.76 bitrate=   1.6kbits/s speed=0.129x    frame=  258 fps=8.7 q=46.0 size=       1kB time=00:00:03.90 bitrate=   1.5kbits/s speed=0.131x    frame=  260 fps=8.6 q=46.0 size=       1kB time=00:00:03.94 bitrate=   1.5kbits/s speed=0.13x    frame=  267 fps=8.5 q=46.0 size=       1kB time=00:00:04.08 bitrate=   1.4kbits/s speed=0.131x    frame=  274 fps=8.6 q=46.0 size=       1kB time=00:00:04.22 bitrate=   1.4kbits/s speed=0.133x    frame=  277 fps=8.6 q=46.0 size=       1kB time=00:00:04.28 bitrate=   1.4kbits/s speed=0.132x    frame=  281 fps=8.6 q=46.0 size=       1kB time=00:00:04.36 bitrate=   1.3kbits/s speed=0.133x    frame=  286 fps=8.6 q=46.0 size=       1kB time=00:00:04.46 bitrate=   1.3kbits/s speed=0.134x    frame=  289 fps=8.5 q=46.0 size=    5163kB time=00:00:04.52 bitrate=9356.0kbits/s speed=0.133x    frame=  295 fps=8.5 q=46.0 size=    5163kB time=00:00:04.64 bitrate=9114.1kbits/s speed=0.133x    frame=  299 fps=8.5 q=46.0 size=    5163kB time=00:00:04.72 bitrate=8959.6kbits/s speed=0.134x    frame=  303 fps=8.4 q=46.0 size=    5163kB time=00:00:04.80 bitrate=8810.3kbits/s speed=0.133x    frame=  306 fps=8.2 q=43.0 size=    5163kB time=00:00:04.86 bitrate=8701.6kbits/s speed=0.131x    frame=  312 fps=8.3 q=46.0 size=    5655kB time=00:00:04.98 bitrate=9300.6kbits/s speed=0.132x    frame=  317 fps=8.3 q=46.0 size=    5655kB time=00:00:05.08 bitrate=9117.5kbits/s speed=0.133x    frame=  323 fps=8.3 q=46.0 size=    5655kB time=00:00:05.20 bitrate=8907.2kbits/s speed=0.134x    frame=  325 fps=8.3 q=46.0 size=    5655kB time=00:00:05.24 bitrate=8839.2kbits/s speed=0.133x    frame=  329 fps=8.3 q=46.0 size=    5655kB time=00:00:05.32 bitrate=8706.3kbits/s speed=0.133x    frame=  334 fps=8.3 q=46.0 size=    5655kB time=00:00:05.42 bitrate=8545.7kbits/s speed=0.134x    frame=  339 fps=8.3 q=46.0 size=    5655kB time=00:00:05.52 bitrate=8390.9kbits/s speed=0.135x    frame=  342 fps=8.2 q=46.0 size=    5655kB time=00:00:05.58 bitrate=8300.7kbits/s speed=0.134x    frame=  349 fps=8.2 q=46.0 size=    5655kB time=00:00:05.72 bitrate=8097.6kbits/s speed=0.135x    frame=  356 fps=8.3 q=46.0 size=    5655kB time=00:00:05.86 bitrate=7904.1kbits/s speed=0.136x    frame=  358 fps=8.2 q=46.0 size=    5655kB time=00:00:05.90 bitrate=7850.6kbits/s speed=0.135x    frame=  365 fps=8.2 q=46.0 size=    5655kB time=00:00:06.04 bitrate=7668.6kbits/s speed=0.136x    frame=  371 fps=8.2 q=46.0 size=    5655kB time=00:00:06.16 bitrate=7519.3kbits/s speed=0.137x    frame=  374 fps=8.2 q=46.0 size=    5655kB time=00:00:06.22 bitrate=7446.7kbits/s speed=0.137x    frame=  379 fps=8.2 q=46.0 size=    5655kB time=00:00:06.32 bitrate=7328.9kbits/s speed=0.137x    frame=  382 fps=8.2 q=46.0 size=    5655kB time=00:00:06.38 bitrate=7260.0kbits/s speed=0.137x    frame=  389 fps=8.2 q=46.0 size=    5655kB time=00:00:06.52 bitrate=7104.2kbits/s speed=0.137x    frame=  394 fps=8.2 q=46.0 size=    5655kB time=00:00:06.62 bitrate=6996.9kbits/s speed=0.138x    frame=  399 fps=8.2 q=46.0 size=    5655kB time=00:00:06.72 bitrate=6892.7kbits/s speed=0.138x    frame=  403 fps=8.2 q=46.0 size=    5655kB time=00:00:06.80 bitrate=6811.7kbits/s speed=0.138x    frame=  409 fps=8.2 q=46.0 size=    5655kB time=00:00:06.92 bitrate=6693.6kbits/s speed=0.138x    frame=  415 fps=8.2 q=46.0 size=    5655kB time=00:00:07.04 bitrate=6579.5kbits/s speed=0.139x    frame=  418 fps=8.2 q=46.0 size=    5655kB time=00:00:07.10 bitrate=6523.9kbits/s speed=0.139x    frame=  424 fps=8.2 q=46.0 size=    5655kB time=00:00:07.22 bitrate=6415.5kbits/s speed=0.14x    frame=  428 fps=8.2 q=46.0 size=    5655kB time=00:00:07.30 bitrate=6345.2kbits/s speed=0.14x    frame=  431 fps=8.2 q=46.0 size=    5655kB time=00:00:07.36 bitrate=6293.5kbits/s speed=0.14x    frame=  437 fps=8.2 q=46.0 size=    5655kB time=00:00:07.48 bitrate=6192.5kbits/s speed=0.14x    frame=  443 fps=8.2 q=46.0 size=    5655kB time=00:00:07.60 bitrate=6094.7kbits/s speed=0.141x    frame=  446 fps=8.2 q=46.0 size=    5655kB time=00:00:07.66 bitrate=6047.0kbits/s speed=0.14x    frame=  453 fps=8.2 q=46.0 size=    5655kB time=00:00:07.80 bitrate=5938.5kbits/s speed=0.141x    frame=  458 fps=8.2 q=46.0 size=    5655kB time=00:00:07.90 bitrate=5863.3kbits/s speed=0.141x    frame=  463 fps=8.2 q=46.0 size=    5655kB time=00:00:08.00 bitrate=5790.0kbits/s speed=0.141x    frame=  468 fps=8.2 q=46.0 size=    5655kB time=00:00:08.10 bitrate=5718.6kbits/s speed=0.142x    frame=  471 fps=8.2 q=46.0 size=    5655kB time=00:00:08.16 bitrate=5676.5kbits/s speed=0.141x    frame=  477 fps=8.1 q=46.0 size=    5655kB time=00:00:08.28 bitrate=5594.3kbits/s speed=0.141x    frame=  483 fps=8.2 q=46.0 size=    5655kB time=00:00:08.40 bitrate=5514.4kbits/s speed=0.142x    frame=  486 fps=8.2 q=46.0 size=    5655kB time=00:00:08.46 bitrate=5475.3kbits/s speed=0.142x    frame=  491 fps=8.2 q=46.0 size=    5655kB time=00:00:08.56 bitrate=5411.3kbits/s speed=0.142x    frame=  496 fps=8.2 q=46.0 size=    5655kB time=00:00:08.66 bitrate=5348.8kbits/s speed=0.143x    frame=  500 fps=8.1 q=46.0 size=    5655kB time=00:00:08.74 bitrate=5299.9kbits/s speed=0.142x    frame=  500 fps=7.4 q=-1.0 Lsize=   11022kB time=00:00:09.94 bitrate=9082.6kbits/s speed=0.147x    
video:11017kB audio:0kB subtitle:0kB other streams:0kB global headers:0kB muxing overhead: 0.040756%
bench: utime=236.496s
bench: maxrss=2141608kB
[libx264 @ 0x30c71c0] frame I:2     Avg QP:36.02  size:328081
[libx264 @ 0x30c71c0] frame P:126   Avg QP:45.38  size: 43350
[libx264 @ 0x30c71c0] frame B:372   Avg QP:48.25  size: 13878
[libx264 @ 0x30c71c0] consecutive B-frames:  0.8%  0.0%  0.0% 99.2%
[libx264 @ 0x30c71c0] mb I  I16..4: 25.4% 67.4%  7.2%
[libx264 @ 0x30c71c0] mb P  I16..4:  3.0%  3.1%  0.0%  P16..4: 31.8%  3.6%  4.3%  0.0%  0.0%    skip:54.1%
[libx264 @ 0x30c71c0] mb B  I16..4:  0.0%  0.1%  0.0%  B16..8: 35.0%  0.8%  0.0%  direct: 0.2%  skip:63.9%  L0:39.7% L1:59.9% BI: 0.4%
[libx264 @ 0x30c71c0] final ratefactor: 38.13
[libx264 @ 0x30c71c0] 8x8 transform intra:54.0% inter:91.2%
[libx264 @ 0x30c71c0] direct mvs  spatial:98.9% temporal:1.1%
[libx264 @ 0x30c71c0] coded y,uvDC,uvAC intra: 23.4% 46.1% 13.9% inter: 1.7% 4.7% 0.1%
[libx264 @ 0x30c71c0] i16 v,h,dc,p: 37% 23%  7% 33%
[libx264 @ 0x30c71c0] i8 v,h,dc,ddl,ddr,vr,hd,vl,hu:  8%  4% 10% 12% 15% 14% 14% 12% 10%
[libx264 @ 0x30c71c0] i4 v,h,dc,ddl,ddr,vr,hd,vl,hu:  5%  3%  1% 14% 18% 16% 16% 12% 15%
[libx264 @ 0x30c71c0] i8c dc,h,v,p: 57% 16% 16% 11%
[libx264 @ 0x30c71c0] Weighted P-Frames: Y:1.6% UV:0.8%
[libx264 @ 0x30c71c0] ref P L0: 67.9%  3.9% 17.3%  5.3%  5.6%  0.1%
[libx264 @ 0x30c71c0] ref B L0: 92.7%  5.4%  1.4%  0.5%
[libx264 @ 0x30c71c0] ref B L1: 98.2%  1.8%
[libx264 @ 0x30c71c0] kb/s:9024.77
